<svg xmlns="http://www.w3.org/2000/svg" viewBox="0 0 25 25">
  <rect width="25" height="25" rx="3" ry="3"/>
  <path d="M9.26,14.13a.74.74,0,0,1-.1-1,.7.7,0,0,1,1-.1,3.88,3.88,0,0,0,4.74,0,.7.7,0,0,1,1,.21.74.74,0,0,1-.2,1A5.28,5.28,0,0,1,9.26,14.13Z" fill="#ffffff"/>
  <path d="M11.95,15a.7.7,0,0,1,1,0,.74.74,0,0,1,0,1L10.59,18.3a.7.7,0,0,1-1,0,.74.74,0,0,1,0-1Z" fill="#ffffff"/>
  <path d="M11.95,16.08a.74.74,0,0,1,0-1,.7.7,0,0,1,1,0l2.33,2.22a.74.74,0,0,1,0,1,.7.7,0,0,1-1,0Z" fill="#ffffff"/>
  <path d="M12.49,6.5a3,3,0,0,1,2.13.91,3.15,3.15,0,0,1,0,4.38,3,3,0,0,1-4.27,0,3.15,3.15,0,0,1,0-4.38,3,3,0,0,1,2.13-.91Zm1.2,1.86a1.67,1.67,0,0,0-2.41,0,1.78,1.78,0,0,0,0,2.47,1.67,1.67,0,0,0,2.41,0,1.78,1.78,0,0,0,0-2.47Z" fill="#ffffff"/>
</svg>