<svg xmlns="http://www.w3.org/2000/svg" viewBox="0 0 25 25" preserveAspectRatio="xMinYMin slice">
  <rect width="25" height="25" rx="3" ry="3"/>
  <path fill="#ffffff" d="M6.36,9.33H8c.6,0,.59.09.77.4.66,1.1,1.57,2.73,2.27,2.63V10.19c0-.85-.58-.47-.61-.77S10.66,9,11.2,9h1.85c.47,0,.52.25.52.51,0,1,0,1.87,0,2.84.94-.08,1.63-1.45,2.21-2.51.32-.59.37-.51.84-.51h1.78c.4,0,.49.16.23.55-.57.88-1.18,1.84-1.78,2.72-.19.29-.32.33,0,.74.67.78,1.38,1.44,2.05,2.22.15.18.1.44-.33.44H16.32c-.3,0-.42,0-.78-.38a3.23,3.23,0,0,0-1.9-1.25v1.23c0,.23-.1.4-.47.4H11.67c-2.12,0-4.52-4.15-5.59-6.18C5.88,9.42,6.07,9.33,6.36,9.33Z"/>
</svg>