<svg width="513" height="513" viewBox="0 0 513 513" fill="none" xmlns="http://www.w3.org/2000/svg">
<path fill-rule="evenodd" clip-rule="evenodd" d="M195.032 28.1063L320.571 58.1453C329.778 60.3523 335.477 69.6336 333.27 78.8406L275.458 320.427C274.391 324.887 271.653 328.665 267.743 331.063C265.008 332.743 261.926 333.606 258.794 333.606C257.454 333.606 256.102 333.45 254.766 333.13L13.1804 275.317C8.71944 274.251 4.94209 271.509 2.54365 267.602C0.145216 263.692 -0.589159 259.083 0.477247 254.622L28.6647 136.837L36.8562 102.595L49.7897 48.5633L53.9226 31.2859L58.2897 13.0359C59.3874 8.46563 62.2312 4.75859 65.9421 2.45391C69.653 0.149219 74.855 -0.573899 79.2032 0.462497L129.673 12.4656L195.032 28.1063ZM260.735 316.903L318.548 75.3172C318.805 74.2312 318.133 73.1336 317.048 72.8758L75.4616 15.0633C75.3015 15.0242 75.1452 15.0086 74.989 15.0086C74.0749 15.0086 73.2429 15.6336 73.0163 16.5633L15.2077 258.149C15.0437 258.821 15.2507 259.352 15.4499 259.68C15.6491 260.005 16.0319 260.43 16.7038 260.591L258.29 318.403H258.294C258.966 318.563 259.497 318.36 259.825 318.157C260.149 317.958 260.571 317.579 260.735 316.903Z" transform="translate(145.505 48.585) rotate(16.9172)" fill="black"/>
<path d="M8.24238 57.8432L44.9025 66.6127C45.7385 66.8158 46.5744 66.9096 47.3986 66.9096C52.2541 66.9096 56.6643 63.5893 57.8439 58.6674L66.6174 22.0111C67.9924 16.2533 64.4299 10.4447 58.6721 9.06973L22.0119 0.296295C16.258 -1.08261 10.4494 2.48379 9.07051 8.24161L0.297072 44.8979C-0.366991 47.6869 0.0900409 50.5697 1.59004 53.015C3.09004 55.4604 5.45332 57.1752 8.24238 57.8432V57.8432ZM22.7736 16.0502L50.8635 22.769L44.1408 50.8627L16.051 44.14L22.7736 16.0502Z" transform="translate(208.722 109.197) rotate(16.9172)" fill="black"/>
<path d="M8.24161 57.8395L44.9018 66.6129C45.7377 66.8121 46.5736 66.9098 47.3979 66.9098C52.2494 66.9098 56.6635 63.5895 57.8432 58.6676L66.6166 22.0114C67.9916 16.2496 64.4291 10.445 58.6713 9.06605L22.0111 0.296519C16.2572 -1.08239 10.4486 2.48011 9.06973 8.23793L0.296295 44.8981C-1.08261 50.6559 2.4838 56.4606 8.24161 57.8395V57.8395ZM22.7729 16.0465L50.8627 22.7692L44.14 50.859L16.0502 44.1403L22.7729 16.0465Z" transform="translate(273.485 148.183) rotate(16.9172)" fill="black"/>
<path d="M58.6662 9.06917L22.0099 0.299637C19.2208 -0.368332 16.338 0.0886995 13.8927 1.5887C11.4474 3.0887 9.73647 5.45198 9.0685 8.24104L0.295064 44.9051C-1.07994 50.659 2.48256 56.4637 8.23647 57.8426H8.24038L44.8966 66.6121C45.7326 66.8153 46.5763 66.9129 47.4162 66.9129C49.3771 66.9129 51.3029 66.3739 53.0138 65.3231C55.4591 63.8192 57.174 61.4559 57.838 58.6707L66.6115 22.0106C67.9904 16.2528 64.4279 10.4481 58.6662 9.06917V9.06917ZM44.1388 50.8621L16.0451 44.1395L22.7677 16.0496L50.8615 22.7723L44.1388 50.8621Z" transform="translate(340.223 187.297) rotate(16.9172)" fill="black"/>
<path d="M66.6152 22.0124C67.2832 19.2233 66.8222 16.3405 65.3222 13.8952C63.8222 11.4499 61.4629 9.73504 58.6699 9.07098L22.0136 0.29754C16.2558 -1.08527 10.4472 2.48504 9.07223 8.24285L0.298794 44.8991C-0.369175 47.6882 0.0917629 50.571 1.59176 53.0163C3.09176 55.4616 5.45114 57.1725 8.24411 57.8405L44.9004 66.6139C45.7363 66.8132 46.5722 66.9108 47.4004 66.9108C52.2519 66.9108 56.666 63.5905 57.8418 58.6686L66.6152 22.0124ZM44.1425 50.8639L16.0488 44.1413L22.7715 16.0475L50.8613 22.7702L44.1425 50.8639Z" transform="translate(167.634 175.803) rotate(16.9172)" fill="black"/>
<path d="M66.616 22.0114C67.2801 19.2223 66.8231 16.3395 65.3231 13.8942C63.8231 11.4489 61.4598 9.73402 58.6707 9.06605L22.0145 0.296519C16.2567 -1.08239 10.4481 2.48011 9.06917 8.23793L0.299637 44.8981C-0.368332 47.6871 0.0886995 50.57 1.5887 53.0153C3.0887 55.4606 5.45198 57.1715 8.24104 57.8395L44.9012 66.6129C45.7371 66.8121 46.5809 66.9098 47.4207 66.9098C49.3778 66.9098 51.3035 66.3707 53.0184 65.32C55.4598 63.82 57.1746 61.4567 57.8426 58.6676L66.616 22.0114ZM44.1395 50.859L16.0496 44.1364L22.7684 16.0465L50.8621 22.7692L44.1395 50.859Z" transform="translate(234.369 214.92) rotate(16.9172)" fill="black"/>
<path d="M58.6721 9.06973L22.0119 0.296295C16.258 -1.08261 10.4494 2.4838 9.07051 8.24161L0.297072 44.8979C-0.36699 47.6869 0.0900406 50.5697 1.59004 53.015C3.09004 55.4604 5.45332 57.1752 8.24238 57.8432L44.8986 66.6127C45.7346 66.8158 46.5783 66.9135 47.4182 66.9135C49.3791 66.9135 51.3049 66.3744 53.0158 65.3236C55.4611 63.8236 57.176 61.4604 57.8439 58.6674L66.6135 22.0111C67.9924 16.2533 64.4299 10.4486 58.6721 9.06973V9.06973ZM44.1408 50.8627L16.051 44.14L22.7736 16.0463L50.8635 22.7729L44.1408 50.8627Z" transform="translate(301.105 254.032) rotate(16.9172)" fill="black"/>
<path d="M58.6674 9.06605L22.0111 0.296519C16.2572 -1.08239 10.4486 2.48011 9.06973 8.23793L0.296296 44.8981C-1.08261 50.6559 2.4838 56.4606 8.24161 57.8395L44.8979 66.6129C45.7377 66.8121 46.5736 66.9059 47.3979 66.9059C52.2494 66.9059 56.6635 63.5895 57.8432 58.6676L66.6127 22.0075C67.9916 16.2496 64.4291 10.445 58.6674 9.06605V9.06605ZM44.14 50.859L16.0502 44.1403L22.769 16.0465L50.8627 22.7692L44.14 50.859Z" transform="translate(128.52 242.541) rotate(16.9172)" fill="black"/>
<path d="M58.6686 9.07051L22.0124 0.297072C19.2233 -0.36699 16.3405 0.0900406 13.8952 1.59004C11.4498 3.09004 9.73891 5.45332 9.07094 8.24238L0.2936 44.9025C-1.07749 50.6604 2.48501 56.465 8.23891 57.8439H8.24282L44.8991 66.6135C45.735 66.8166 46.5748 66.9104 47.3991 66.9104C52.2506 66.9104 56.6647 63.59 57.8405 58.6682L66.6139 22.0119C67.2819 19.2229 66.8249 16.34 65.3249 13.8947C63.8209 11.4533 61.4577 9.73848 58.6686 9.07051V9.07051ZM44.1413 50.8635L16.0475 44.1408L22.7702 16.051L50.8639 22.7697L44.1413 50.8635Z" transform="translate(195.257 281.652) rotate(16.9172)" fill="black"/>
<path d="M58.6707 9.07223L22.0145 0.298794C19.2254 -0.369175 16.3426 0.0917629 13.8973 1.59176C11.452 3.09176 9.73714 5.45114 9.06917 8.24411L0.299636 44.9004C-0.368332 47.6894 0.088699 50.5722 1.5887 53.0175C3.0887 55.4629 5.45198 57.1777 8.24104 57.8418L44.9012 66.6152C45.7371 66.8144 46.5731 66.9121 47.3973 66.9121C52.2489 66.9121 56.6629 63.5918 57.8426 58.6699L66.616 22.0136C67.2801 19.2246 66.8231 16.3418 65.3231 13.8965C63.8231 11.4511 61.4598 9.73629 58.6707 9.07223V9.07223ZM44.1434 50.8652L16.0496 44.1425L22.7723 16.0488L50.8621 22.7715L44.1434 50.8652Z" transform="translate(261.991 320.766) rotate(16.9172)" fill="black"/>
</svg>
